# xmcd
#
# Track frame offsets: 
#        150
#        19309
#        40587
#        61844
#        79104
#        101550
#        117937
#        134584
#        152070
#        168790
#        190803
#
# Disc length: 2597 seconds
#
# Revision: 0
# Processed by: cddbd v1.5.2PL0 Copyright (c) Steve Scherf et al.
# Submitted via: ExactAudioCopy v0.99pb5
#
DISCID=860a230b
DTITLE=汪中意 - 汪中意首張同名創作專輯
DYEAR=2010
DGENRE=
TTITLE0=旅行
TTITLE1=Baby
TTITLE2=說你愛我
TTITLE3=壞女巫
TTITLE4=渴望
TTITLE5=汪中意
TTITLE6=堅持
TTITLE7=如果說你要離開我
TTITLE8=守護天使
TTITLE9=相思海
TTITLE10=老師的祝福
EXTD=
EXTT0=
EXTT1=
EXTT2=
EXTT3=
EXTT4=
EXTT5=
EXTT6=
EXTT7=
EXTT8=
EXTT9=
EXTT10=
PLAYORDER=
